<?xml version="1.0" encoding="UTF-8"?>
<svg xmlns="http://www.w3.org/2000/svg" xmlns:xlink="http://www.w3.org/1999/xlink" width="58px" height="40px" viewBox="0 0 58 40" version="1.1">
<g id="surface1">
<path style=" stroke:none;fill-rule:nonzero;fill:rgb(98.431373%,98.823529%,98.823529%);fill-opacity:1;" d="M 0 0 C 19.140625 0 38.28125 0 58 0 C 58 13.199219 58 26.398438 58 40 C 38.859375 40 19.71875 40 0 40 C 0 26.800781 0 13.601562 0 0 Z M 0 0 "/>
<path style=" stroke:none;fill-rule:nonzero;fill:rgb(10.196079%,32.156864%,34.509805%);fill-opacity:1;" d="M 24.125 3.589844 C 25.886719 5.207031 25.628906 7.371094 25.777344 9.675781 C 26.203125 9.464844 26.628906 9.25 27.066406 9.03125 C 28.585938 9.636719 30.09375 10.28125 31.578125 10.96875 C 31.734375 12.609375 31.847656 14.238281 31.941406 15.886719 C 31.988281 16.347656 32.039062 16.808594 32.085938 17.28125 C 32.148438 18.792969 32.089844 19.859375 31.578125 21.289062 C 29.859375 22.960938 27.867188 24.015625 25.777344 25.160156 C 24.746094 25.808594 23.71875 26.460938 22.691406 27.113281 C 21.652344 27.742188 20.613281 28.367188 19.574219 28.992188 C 18.796875 29.480469 18.796875 29.480469 18 29.980469 C 15.5 31.46875 14.058594 32.265625 11.097656 32.222656 C 9.257812 31.683594 7.570312 31.109375 5.839844 30.28125 C 5.34375 30.046875 4.84375 29.816406 4.332031 29.574219 C 3.964844 29.394531 3.601562 29.214844 3.222656 29.03125 C 3.222656 28.820312 3.222656 28.605469 3.222656 28.386719 C 4.285156 28.386719 5.347656 28.386719 6.445312 28.386719 C 6.425781 27.949219 6.410156 27.507812 6.394531 27.054688 C 6.328125 25.066406 6.285156 23.078125 6.242188 21.089844 C 6.214844 20.398438 6.1875 19.707031 6.160156 18.992188 C 6.152344 18.328125 6.140625 17.667969 6.128906 16.984375 C 6.113281 16.371094 6.097656 15.761719 6.078125 15.128906 C 6.445312 13.546875 6.445312 13.546875 7.941406 12.351562 C 10.082031 11.433594 11.3125 11.6875 13.535156 12.257812 C 13.488281 11.777344 13.445312 11.292969 13.398438 10.796875 C 13.292969 8.859375 13.273438 7.082031 13.535156 5.160156 C 16.808594 1.554688 19.824219 2.59375 24.125 3.589844 Z M 24.125 3.589844 "/>
<path style=" stroke:none;fill-rule:nonzero;fill:rgb(9.803922%,36.470589%,39.607844%);fill-opacity:1;" d="M 18.6875 2.582031 C 18.6875 3.859375 18.6875 5.136719 18.6875 6.453125 C 19.113281 6.664062 19.539062 6.878906 19.976562 7.097656 C 19.550781 7.097656 19.128906 7.097656 18.6875 7.097656 C 18.796875 7.550781 18.90625 8.003906 19.015625 8.46875 C 19.351562 10.4375 19.347656 12.171875 19.253906 14.164062 C 19.222656 14.882812 19.191406 15.601562 19.160156 16.339844 C 19.125 17.082031 19.089844 17.824219 19.050781 18.589844 C 19.019531 19.34375 18.984375 20.097656 18.949219 20.875 C 18.867188 22.734375 18.777344 24.59375 18.6875 26.453125 C 19.113281 26.664062 19.539062 26.878906 19.976562 27.097656 C 15.207031 29.898438 12.027344 30.664062 6.597656 29.429688 C 6.121094 29.296875 5.644531 29.167969 5.15625 29.03125 C 5.792969 28.714844 5.792969 28.714844 6.445312 28.386719 C 6.425781 27.949219 6.410156 27.507812 6.394531 27.054688 C 6.328125 25.066406 6.285156 23.078125 6.242188 21.089844 C 6.214844 20.398438 6.1875 19.707031 6.160156 18.992188 C 6.152344 18.328125 6.140625 17.667969 6.128906 16.984375 C 6.113281 16.371094 6.097656 15.761719 6.078125 15.128906 C 6.445312 13.546875 6.445312 13.546875 7.941406 12.351562 C 10.082031 11.433594 11.3125 11.6875 13.535156 12.257812 C 13.488281 11.777344 13.445312 11.292969 13.398438 10.796875 C 13.289062 8.855469 13.257812 7.085938 13.535156 5.160156 C 16.289062 2.582031 16.289062 2.582031 18.6875 2.582031 Z M 18.6875 2.582031 "/>
<path style=" stroke:none;fill-rule:nonzero;fill:rgb(18.039216%,18.039216%,14.117648%);fill-opacity:1;" d="M 25.777344 27.097656 C 27.054688 27.097656 28.328125 27.097656 29.644531 27.097656 C 29.855469 27.949219 30.070312 28.800781 30.289062 29.675781 C 30.636719 29.257812 30.984375 28.835938 31.339844 28.402344 C 33.253906 26.761719 34.15625 26.792969 36.644531 26.84375 C 37.359375 26.851562 38.078125 26.863281 38.820312 26.871094 C 39.941406 26.902344 39.941406 26.902344 41.082031 26.933594 C 42.21875 26.953125 42.21875 26.953125 43.375 26.972656 C 45.246094 27 47.109375 27.042969 48.976562 27.097656 C 48.976562 27.523438 48.976562 27.949219 48.976562 28.386719 C 49.617188 28.386719 50.253906 28.386719 50.910156 28.386719 C 50.910156 27.960938 50.910156 27.535156 50.910156 27.097656 C 52.398438 27.097656 53.886719 27.097656 55.421875 27.097656 C 55.023438 27.28125 54.625 27.46875 54.214844 27.660156 C 52.757812 28.347656 52.757812 28.347656 51.554688 29.675781 C 52.195312 30.742188 52.832031 31.804688 53.488281 32.902344 C 52 32.902344 50.511719 32.902344 48.976562 32.902344 C 49.191406 32.050781 49.402344 31.199219 49.621094 30.324219 C 48.773438 30.535156 47.921875 30.75 47.042969 30.96875 C 47.46875 32.246094 47.894531 33.523438 48.332031 34.839844 C 48.546875 34.414062 48.757812 33.988281 48.976562 33.546875 C 49.402344 33.546875 49.828125 33.546875 50.265625 33.546875 C 50.585938 34.824219 50.585938 34.824219 50.910156 36.128906 C 51.125 35.917969 51.335938 35.703125 51.554688 35.484375 C 51.554688 34.84375 51.554688 34.207031 51.554688 33.546875 C 51.875 34.1875 51.875 34.1875 52.199219 34.839844 C 52.839844 35.050781 53.476562 35.265625 54.132812 35.484375 C 53.921875 36.121094 53.707031 36.761719 53.488281 37.417969 C 51.363281 37.417969 49.234375 37.417969 47.042969 37.417969 C 46.726562 36.78125 46.726562 36.78125 46.398438 36.128906 C 46.398438 36.554688 46.398438 36.980469 46.398438 37.417969 C 45.335938 37.417969 44.273438 37.417969 43.179688 37.417969 C 43.179688 36.140625 43.179688 34.863281 43.179688 33.546875 C 41.050781 33.546875 38.925781 33.546875 36.734375 33.546875 C 36.945312 34.398438 37.160156 35.25 37.378906 36.128906 C 37.804688 36.34375 38.226562 36.554688 38.667969 36.773438 C 38.023438 37.417969 38.023438 37.417969 35.523438 37.460938 C 34.640625 37.449219 33.753906 37.433594 32.867188 37.417969 C 32.230469 37.417969 31.589844 37.417969 30.933594 37.417969 C 30.296875 37.207031 29.65625 36.992188 29 36.773438 C 29.011719 36.253906 29.027344 35.734375 29.039062 35.203125 C 29.191406 33.589844 29.191406 33.589844 28.355469 32.902344 C 28.328125 31.613281 28.328125 30.324219 28.355469 29.03125 C 27.929688 29.03125 27.503906 29.03125 27.066406 29.03125 C 27.066406 30.308594 27.066406 31.585938 27.066406 32.902344 C 25.578125 32.902344 24.089844 32.902344 22.554688 32.902344 C 23.171875 32.183594 23.171875 32.183594 23.804688 31.453125 C 24.992188 29.863281 25.496094 29.011719 25.777344 27.097656 Z M 25.777344 27.097656 "/>
<path style=" stroke:none;fill-rule:nonzero;fill:rgb(2.745098%,8.627451%,9.019608%);fill-opacity:1;" d="M 18.6875 2.582031 C 24.488281 3.871094 24.488281 3.871094 25.132812 4.515625 C 25.191406 5.710938 25.203125 6.910156 25.195312 8.105469 C 25.195312 8.832031 25.191406 9.558594 25.191406 10.304688 C 25.183594 11.070312 25.179688 11.832031 25.171875 12.621094 C 25.171875 13.386719 25.167969 14.152344 25.164062 14.941406 C 25.15625 16.84375 25.148438 18.746094 25.132812 20.644531 C 23.007812 20.644531 20.878906 20.644531 18.6875 20.644531 C 18.6875 14.683594 18.6875 8.722656 18.6875 2.582031 Z M 18.6875 2.582031 "/>
<path style=" stroke:none;fill-rule:nonzero;fill:rgb(12.54902%,41.960785%,45.09804%);fill-opacity:1;" d="M 18.6875 2.582031 C 18.6875 3.859375 18.6875 5.136719 18.6875 6.453125 C 19.113281 6.664062 19.539062 6.878906 19.976562 7.097656 C 19.550781 7.097656 19.128906 7.097656 18.6875 7.097656 C 18.796875 7.550781 18.90625 8.003906 19.015625 8.46875 C 19.351562 10.4375 19.347656 12.171875 19.253906 14.164062 C 19.222656 14.882812 19.191406 15.601562 19.160156 16.339844 C 19.125 17.082031 19.089844 17.824219 19.050781 18.589844 C 19.019531 19.34375 18.984375 20.097656 18.949219 20.875 C 18.867188 22.734375 18.777344 24.59375 18.6875 26.453125 C 19.113281 26.664062 19.539062 26.878906 19.976562 27.097656 C 13.636719 30.359375 13.636719 30.359375 10.511719 30.203125 C 10.019531 30.027344 9.527344 29.855469 9.023438 29.675781 C 9.707031 28.386719 9.707031 28.386719 10.957031 27.097656 C 12.445312 27.097656 13.933594 27.097656 15.464844 27.097656 C 15.464844 22.414062 15.464844 17.730469 15.464844 12.902344 C 14.828125 12.902344 14.191406 12.902344 13.535156 12.902344 C 13.3125 10.285156 13.1875 7.769531 13.535156 5.160156 C 15.265625 3.503906 16.253906 2.582031 18.6875 2.582031 Z M 18.6875 2.582031 "/>
<path style=" stroke:none;fill-rule:nonzero;fill:rgb(8.235294%,8.627451%,8.235294%);fill-opacity:1;" d="M 18.6875 21.289062 C 20.601562 21.289062 22.515625 21.289062 24.488281 21.289062 C 24.808594 22.566406 24.808594 22.566406 25.132812 23.871094 C 25.558594 24.082031 25.984375 24.296875 26.421875 24.515625 C 24.378906 25.839844 22.320312 27.136719 20.257812 28.425781 C 19.683594 28.800781 19.105469 29.175781 18.511719 29.5625 C 14.164062 32.257812 14.164062 32.257812 11.054688 32.257812 C 9.25 31.683594 7.550781 31.097656 5.839844 30.28125 C 5.34375 30.046875 4.84375 29.816406 4.332031 29.574219 C 3.964844 29.394531 3.601562 29.214844 3.222656 29.03125 C 5.523438 28.265625 6.453125 28.628906 8.78125 29.195312 C 12.574219 29.90625 14.515625 29.3125 17.691406 27.203125 C 18.019531 26.953125 18.351562 26.707031 18.6875 26.453125 C 18.6875 24.75 18.6875 23.046875 18.6875 21.289062 Z M 18.6875 21.289062 "/>
<path style=" stroke:none;fill-rule:nonzero;fill:rgb(6.666667%,6.666667%,6.27451%);fill-opacity:1;" d="M 25.777344 27.097656 C 27.054688 27.097656 28.328125 27.097656 29.644531 27.097656 C 29.855469 27.949219 30.070312 28.800781 30.289062 29.675781 C 30.746094 29.039062 30.746094 29.039062 31.214844 28.386719 C 33.605469 26.519531 35.738281 26.871094 38.667969 27.097656 C 38.027344 27.523438 37.390625 27.949219 36.734375 28.386719 C 36.734375 28.8125 36.734375 29.238281 36.734375 29.675781 C 38.433594 29.890625 40.136719 30.101562 41.890625 30.324219 C 41.890625 30.75 41.890625 31.175781 41.890625 31.613281 C 37.101562 31.703125 37.101562 31.703125 34.800781 30.96875 C 34.800781 31.394531 34.800781 31.820312 34.800781 32.257812 C 33.949219 32.046875 33.097656 31.832031 32.222656 31.613281 C 32.433594 30.972656 32.648438 30.335938 32.867188 29.675781 C 32.363281 30.210938 31.855469 30.742188 31.335938 31.289062 C 29.644531 32.902344 29.644531 32.902344 28.355469 32.902344 C 28.355469 31.625 28.355469 30.347656 28.355469 29.03125 C 27.929688 29.03125 27.503906 29.03125 27.066406 29.03125 C 27.066406 30.308594 27.066406 31.585938 27.066406 32.902344 C 25.578125 32.902344 24.089844 32.902344 22.554688 32.902344 C 23.171875 32.183594 23.171875 32.183594 23.804688 31.453125 C 24.992188 29.863281 25.496094 29.011719 25.777344 27.097656 Z M 25.777344 27.097656 "/>
<path style=" stroke:none;fill-rule:nonzero;fill:rgb(67.450982%,67.450982%,67.058825%);fill-opacity:1;" d="M 32.867188 29.03125 C 33.292969 29.246094 33.71875 29.457031 34.15625 29.675781 C 33.515625 30.527344 32.878906 31.378906 32.222656 32.257812 C 33.710938 32.683594 35.199219 33.109375 36.734375 33.546875 C 36.8125 33.960938 36.894531 34.375 36.976562 34.796875 C 37.109375 35.238281 37.242188 35.675781 37.378906 36.128906 C 37.804688 36.34375 38.226562 36.554688 38.667969 36.773438 C 38.023438 37.417969 38.023438 37.417969 35.523438 37.460938 C 34.640625 37.449219 33.753906 37.433594 32.867188 37.417969 C 32.230469 37.417969 31.589844 37.417969 30.933594 37.417969 C 30.296875 37.207031 29.65625 36.992188 29 36.773438 C 29.167969 33.898438 29.371094 32.570312 31.296875 30.363281 C 31.8125 29.921875 32.332031 29.484375 32.867188 29.03125 Z M 32.867188 29.03125 "/>
<path style=" stroke:none;fill-rule:nonzero;fill:rgb(43.137255%,43.137255%,42.745098%);fill-opacity:1;" d="M 48.332031 33.546875 C 48.546875 33.761719 48.757812 33.972656 48.976562 34.195312 C 49.402344 33.980469 49.828125 33.769531 50.265625 33.546875 C 50.480469 34.398438 50.691406 35.25 50.910156 36.128906 C 51.125 35.917969 51.335938 35.703125 51.554688 35.484375 C 51.554688 34.84375 51.554688 34.207031 51.554688 33.546875 C 51.769531 33.972656 51.980469 34.398438 52.199219 34.839844 C 52.839844 35.050781 53.476562 35.265625 54.132812 35.484375 C 53.921875 36.121094 53.707031 36.761719 53.488281 37.417969 C 51.363281 37.417969 49.234375 37.417969 47.042969 37.417969 C 46.832031 36.992188 46.617188 36.566406 46.398438 36.128906 C 46.398438 36.554688 46.398438 36.980469 46.398438 37.417969 C 45.335938 37.417969 44.273438 37.417969 43.179688 37.417969 C 43.179688 36.140625 43.179688 34.863281 43.179688 33.546875 C 45.035156 32.617188 46.347656 33.125 48.332031 33.546875 Z M 48.332031 33.546875 "/>
<path style=" stroke:none;fill-rule:nonzero;fill:rgb(0.392157%,1.176471%,1.176471%);fill-opacity:1;" d="M 19.332031 10.96875 C 23.683594 11.53125 23.683594 11.53125 25.132812 12.257812 C 25.132812 14.175781 25.132812 16.089844 25.132812 18.066406 C 23.21875 17.851562 21.304688 17.640625 19.332031 17.417969 C 19.332031 16.355469 19.332031 15.289062 19.332031 14.195312 C 19.972656 14.195312 20.609375 14.195312 21.265625 14.195312 C 20.628906 13.980469 19.992188 13.769531 19.332031 13.546875 C 19.332031 12.695312 19.332031 11.84375 19.332031 10.96875 Z M 19.332031 10.96875 "/>
<path style=" stroke:none;fill-rule:nonzero;fill:rgb(3.921569%,9.019608%,9.411765%);fill-opacity:1;" d="M 27.066406 16.128906 C 28.554688 16.34375 30.042969 16.554688 31.578125 16.773438 C 31.738281 18.910156 31.738281 18.910156 31.578125 21.289062 C 30.410156 22.582031 30.410156 22.582031 29 23.226562 C 28.363281 23.011719 27.722656 22.800781 27.066406 22.582031 C 27.066406 20.453125 27.066406 18.324219 27.066406 16.128906 Z M 27.066406 16.128906 "/>
<path style=" stroke:none;fill-rule:nonzero;fill:rgb(95.294118%,93.333334%,0.784314%);fill-opacity:1;" d="M 36.734375 27.742188 C 39.496094 27.742188 42.261719 27.742188 45.109375 27.742188 C 45.109375 28.167969 45.109375 28.59375 45.109375 29.03125 C 42.984375 28.820312 40.859375 28.605469 38.667969 28.386719 C 38.667969 28.8125 38.667969 29.238281 38.667969 29.675781 C 40.582031 29.675781 42.496094 29.675781 44.464844 29.675781 C 44.042969 30.527344 43.617188 31.378906 43.179688 32.257812 C 40.414062 32.257812 37.648438 32.257812 34.800781 32.257812 C 34.800781 31.832031 34.800781 31.40625 34.800781 30.96875 C 37.140625 31.179688 39.480469 31.394531 41.890625 31.613281 C 41.890625 31.1875 41.890625 30.761719 41.890625 30.324219 C 40.1875 30.324219 38.484375 30.324219 36.734375 30.324219 C 36.734375 29.472656 36.734375 28.621094 36.734375 27.742188 Z M 36.734375 27.742188 "/>
<path style=" stroke:none;fill-rule:nonzero;fill:rgb(0.392157%,1.960784%,2.352941%);fill-opacity:1;" d="M 18.6875 21.289062 C 20.601562 21.289062 22.515625 21.289062 24.488281 21.289062 C 24.703125 22.140625 24.914062 22.992188 25.132812 23.871094 C 24.300781 24.304688 23.46875 24.734375 22.636719 25.160156 C 22.171875 25.402344 21.710938 25.640625 21.230469 25.886719 C 19.976562 26.453125 19.976562 26.453125 18.6875 26.453125 C 18.6875 24.75 18.6875 23.046875 18.6875 21.289062 Z M 18.6875 21.289062 "/>
<path style=" stroke:none;fill-rule:nonzero;fill:rgb(1.568628%,5.098039%,5.490196%);fill-opacity:1;" d="M 27.066406 9.675781 C 28.554688 10.101562 30.042969 10.527344 31.578125 10.96875 C 31.578125 12.671875 31.578125 14.375 31.578125 16.128906 C 30.089844 15.917969 28.601562 15.703125 27.066406 15.484375 C 27.066406 13.566406 27.066406 11.652344 27.066406 9.675781 Z M 27.066406 9.675781 "/>
<path style=" stroke:none;fill-rule:nonzero;fill:rgb(0%,0.392157%,0.784314%);fill-opacity:1;" d="M 10.3125 11.613281 C 12.011719 12.039062 13.714844 12.464844 15.464844 12.902344 C 15.464844 14.179688 15.464844 15.457031 15.464844 16.773438 C 13.765625 16.5625 12.0625 16.347656 10.3125 16.128906 C 10.3125 14.640625 10.3125 13.148438 10.3125 11.613281 Z M 10.3125 11.613281 "/>
<path style=" stroke:none;fill-rule:nonzero;fill:rgb(4.705882%,4.705882%,4.313726%);fill-opacity:1;" d="M 25.777344 27.097656 C 27.054688 27.097656 28.328125 27.097656 29.644531 27.097656 C 29.433594 28.800781 29.21875 30.503906 29 32.257812 C 28.789062 32.257812 28.574219 32.257812 28.355469 32.257812 C 28.355469 31.195312 28.355469 30.128906 28.355469 29.03125 C 27.929688 29.03125 27.503906 29.03125 27.066406 29.03125 C 27.066406 30.308594 27.066406 31.585938 27.066406 32.902344 C 25.578125 32.902344 24.089844 32.902344 22.554688 32.902344 C 23.171875 32.183594 23.171875 32.183594 23.804688 31.453125 C 24.992188 29.863281 25.496094 29.011719 25.777344 27.097656 Z M 25.777344 27.097656 "/>
<path style=" stroke:none;fill-rule:nonzero;fill:rgb(89.803922%,89.803922%,89.411765%);fill-opacity:1;" d="M 47.042969 30.324219 C 47.894531 30.324219 48.746094 30.324219 49.621094 30.324219 C 49.621094 30.960938 49.621094 31.601562 49.621094 32.257812 C 51.109375 32.683594 52.597656 33.109375 54.132812 33.546875 C 54.132812 33.972656 54.132812 34.398438 54.132812 34.839844 C 53.28125 34.625 52.433594 34.414062 51.554688 34.195312 C 51.980469 35.046875 52.40625 35.898438 52.84375 36.773438 C 51.78125 36.5625 50.71875 36.347656 49.621094 36.128906 C 49.621094 35.703125 49.621094 35.277344 49.621094 34.839844 C 49.195312 34.839844 48.773438 34.839844 48.332031 34.839844 C 48.332031 34.414062 48.332031 33.988281 48.332031 33.546875 C 47.90625 33.335938 47.484375 33.121094 47.042969 32.902344 C 47.257812 32.476562 47.46875 32.050781 47.6875 31.613281 C 47.261719 31.398438 46.839844 31.1875 46.398438 30.96875 C 46.613281 30.753906 46.824219 30.542969 47.042969 30.324219 Z M 47.042969 30.324219 "/>
<path style=" stroke:none;fill-rule:nonzero;fill:rgb(10.588235%,11.372549%,10.588235%);fill-opacity:1;" d="M 3.222656 28.386719 C 3.898438 28.488281 4.574219 28.589844 5.269531 28.691406 C 6.15625 28.820312 7.046875 28.945312 7.933594 29.074219 C 8.601562 29.171875 8.601562 29.171875 9.28125 29.277344 C 11.402344 29.574219 12.761719 29.71875 14.820312 29.03125 C 14.820312 29.882812 14.820312 30.734375 14.820312 31.613281 C 10.28125 32.925781 7.277344 31.152344 3.222656 29.03125 C 3.222656 28.820312 3.222656 28.605469 3.222656 28.386719 Z M 3.222656 28.386719 "/>
<path style=" stroke:none;fill-rule:nonzero;fill:rgb(0%,0.392157%,0.392157%);fill-opacity:1;" d="M 10.3125 16.773438 C 12.011719 16.988281 13.714844 17.199219 15.464844 17.417969 C 15.464844 18.269531 15.464844 19.121094 15.464844 20 C 13.765625 20 12.0625 20 10.3125 20 C 10.3125 18.933594 10.3125 17.871094 10.3125 16.773438 Z M 10.3125 16.773438 "/>
<path style=" stroke:none;fill-rule:nonzero;fill:rgb(0.392157%,1.176471%,1.176471%);fill-opacity:1;" d="M 10.3125 20.644531 C 12.011719 20.859375 13.714844 21.070312 15.464844 21.289062 C 15.464844 22.140625 15.464844 22.992188 15.464844 23.871094 C 13.765625 23.871094 12.0625 23.871094 10.3125 23.871094 C 10.3125 22.804688 10.3125 21.742188 10.3125 20.644531 Z M 10.3125 20.644531 "/>
<path style=" stroke:none;fill-rule:nonzero;fill:rgb(0.392157%,1.568628%,1.568628%);fill-opacity:1;" d="M 18.6875 18.066406 C 20.816406 18.277344 22.941406 18.492188 25.132812 18.710938 C 25.132812 19.347656 25.132812 19.988281 25.132812 20.644531 C 23.007812 20.644531 20.878906 20.644531 18.6875 20.644531 C 18.6875 19.792969 18.6875 18.941406 18.6875 18.066406 Z M 18.6875 18.066406 "/>
<path style=" stroke:none;fill-rule:nonzero;fill:rgb(85.882354%,85.882354%,85.882354%);fill-opacity:1;" d="M 47.042969 32.902344 C 46.832031 34.394531 46.617188 35.882812 46.398438 37.417969 C 45.335938 37.417969 44.273438 37.417969 43.179688 37.417969 C 43.179688 36.140625 43.179688 34.863281 43.179688 33.546875 C 44.464844 32.902344 44.464844 32.902344 47.042969 32.902344 Z M 47.042969 32.902344 "/>
<path style=" stroke:none;fill-rule:nonzero;fill:rgb(10.588235%,10.196079%,9.019608%);fill-opacity:1;" d="M 36.550781 29.148438 C 38.347656 29.484375 40.117188 29.871094 41.890625 30.324219 C 41.890625 30.75 41.890625 31.175781 41.890625 31.613281 C 37.101562 31.703125 37.101562 31.703125 34.800781 30.96875 C 34.800781 31.394531 34.800781 31.820312 34.800781 32.257812 C 33.949219 32.046875 33.097656 31.832031 32.222656 31.613281 C 33.433594 29.648438 34.214844 28.992188 36.550781 29.148438 Z M 36.550781 29.148438 "/>
<path style=" stroke:none;fill-rule:nonzero;fill:rgb(0%,0%,0%);fill-opacity:1;" d="M 10.3125 24.515625 C 12.011719 24.515625 13.714844 24.515625 15.464844 24.515625 C 15.464844 25.367188 15.464844 26.21875 15.464844 27.097656 C 13.765625 27.308594 12.0625 27.523438 10.3125 27.742188 C 10.3125 26.675781 10.3125 25.613281 10.3125 24.515625 Z M 10.3125 24.515625 "/>
<path style=" stroke:none;fill-rule:nonzero;fill:rgb(87.843138%,85.490197%,1.960784%);fill-opacity:1;" d="M 36.734375 27.742188 C 39.496094 27.742188 42.261719 27.742188 45.109375 27.742188 C 45.109375 28.167969 45.109375 28.59375 45.109375 29.03125 C 42.984375 28.820312 40.859375 28.605469 38.667969 28.386719 C 38.878906 29.027344 39.09375 29.664062 39.3125 30.324219 C 38.246094 30.109375 37.183594 29.898438 36.089844 29.675781 C 36.300781 29.039062 36.515625 28.398438 36.734375 27.742188 Z M 36.734375 27.742188 "/>
<path style=" stroke:none;fill-rule:nonzero;fill:rgb(65.490198%,65.490198%,65.098041%);fill-opacity:1;" d="M 32.867188 29.03125 C 33.292969 29.246094 33.71875 29.457031 34.15625 29.675781 C 33.269531 30.96875 33.269531 30.96875 32.222656 32.257812 C 31.796875 32.257812 31.371094 32.257812 30.933594 32.257812 C 30.933594 33.960938 30.933594 35.664062 30.933594 37.417969 C 30.296875 37.207031 29.65625 36.992188 29 36.773438 C 29.167969 33.898438 29.371094 32.570312 31.296875 30.363281 C 31.8125 29.921875 32.332031 29.484375 32.867188 29.03125 Z M 32.867188 29.03125 "/>
<path style=" stroke:none;fill-rule:nonzero;fill:rgb(12.156863%,39.215687%,42.352942%);fill-opacity:1;" d="M 26.421875 9.03125 C 26.636719 9.03125 26.847656 9.03125 27.066406 9.03125 C 27.066406 10.097656 27.066406 11.160156 27.066406 12.257812 C 27.492188 12.472656 27.917969 12.683594 28.355469 12.902344 C 27.929688 12.902344 27.503906 12.902344 27.066406 12.902344 C 26.855469 13.542969 26.640625 14.179688 26.421875 14.839844 C 25.996094 14.839844 25.570312 14.839844 25.132812 14.839844 C 24.691406 13.386719 24.691406 13.386719 24.488281 11.613281 C 25.375 10.121094 25.375 10.121094 26.421875 9.03125 Z M 26.421875 9.03125 "/>
<path style=" stroke:none;fill-rule:nonzero;fill:rgb(43.529412%,43.529412%,43.137255%);fill-opacity:1;" d="M 39.3125 33.546875 C 40.90625 33.867188 40.90625 33.867188 42.535156 34.195312 C 42.320312 35.046875 42.109375 35.898438 41.890625 36.773438 C 41.039062 36.773438 40.1875 36.773438 39.3125 36.773438 C 39.3125 35.710938 39.3125 34.644531 39.3125 33.546875 Z M 39.3125 33.546875 "/>
<path style=" stroke:none;fill-rule:nonzero;fill:rgb(8.235294%,8.235294%,7.843138%);fill-opacity:1;" d="M 50.910156 27.097656 C 52.398438 27.097656 53.886719 27.097656 55.421875 27.097656 C 55.023438 27.28125 54.625 27.46875 54.214844 27.660156 C 52.757812 28.347656 52.757812 28.347656 51.554688 29.675781 C 51.980469 30.527344 52.40625 31.378906 52.84375 32.257812 C 51.992188 32.257812 51.144531 32.257812 50.265625 32.257812 C 50.1875 28.546875 50.1875 28.546875 50.910156 27.097656 Z M 50.910156 27.097656 "/>
<path style=" stroke:none;fill-rule:nonzero;fill:rgb(11.764706%,19.215687%,19.607843%);fill-opacity:1;" d="M 26.421875 24.515625 C 24.507812 25.582031 22.59375 26.644531 20.621094 27.742188 C 20.410156 27.101562 20.195312 26.464844 19.976562 25.804688 C 23.523438 23.789062 23.523438 23.789062 26.421875 24.515625 Z M 26.421875 24.515625 "/>
<path style=" stroke:none;fill-rule:nonzero;fill:rgb(0%,0.392157%,0.392157%);fill-opacity:1;" d="M 27.066406 12.902344 C 28.554688 13.328125 30.042969 13.753906 31.578125 14.195312 C 31.578125 14.832031 31.578125 15.472656 31.578125 16.128906 C 30.089844 15.917969 28.601562 15.703125 27.066406 15.484375 C 27.066406 14.632812 27.066406 13.78125 27.066406 12.902344 Z M 27.066406 12.902344 "/>
<path style=" stroke:none;fill-rule:nonzero;fill:rgb(42.745098%,42.745098%,42.352942%);fill-opacity:1;" d="M 24.488281 33.546875 C 24.914062 33.546875 25.339844 33.546875 25.777344 33.546875 C 25.777344 34.398438 25.777344 35.25 25.777344 36.128906 C 25.992188 35.277344 26.203125 34.425781 26.421875 33.546875 C 26.847656 33.546875 27.273438 33.546875 27.710938 33.546875 C 27.710938 34.613281 27.710938 35.675781 27.710938 36.773438 C 26.648438 36.988281 25.585938 37.199219 24.488281 37.417969 C 24.488281 36.140625 24.488281 34.863281 24.488281 33.546875 Z M 24.488281 33.546875 "/>
<path style=" stroke:none;fill-rule:nonzero;fill:rgb(21.176471%,21.176471%,20.392157%);fill-opacity:1;" d="M 50.265625 28.386719 C 50.265625 29.664062 50.265625 30.941406 50.265625 32.257812 C 51.328125 32.257812 52.394531 32.257812 53.488281 32.257812 C 53.488281 32.472656 53.488281 32.683594 53.488281 32.902344 C 52 32.902344 50.511719 32.902344 48.976562 32.902344 C 49.191406 32.050781 49.402344 31.199219 49.621094 30.324219 C 48.773438 30.109375 47.921875 29.898438 47.042969 29.675781 C 48.976562 28.386719 48.976562 28.386719 50.265625 28.386719 Z M 50.265625 28.386719 "/>
<path style=" stroke:none;fill-rule:nonzero;fill:rgb(92.54902%,92.54902%,92.156863%);fill-opacity:1;" d="M 47.042969 30.324219 C 47.894531 30.324219 48.746094 30.324219 49.621094 30.324219 C 49.621094 31.8125 49.621094 33.304688 49.621094 34.839844 C 49.195312 34.839844 48.773438 34.839844 48.332031 34.839844 C 48.332031 34.414062 48.332031 33.988281 48.332031 33.546875 C 47.90625 33.335938 47.484375 33.121094 47.042969 32.902344 C 47.257812 32.476562 47.46875 32.050781 47.6875 31.613281 C 47.261719 31.398438 46.839844 31.1875 46.398438 30.96875 C 46.613281 30.753906 46.824219 30.542969 47.042969 30.324219 Z M 47.042969 30.324219 "/>
<path style=" stroke:none;fill-rule:nonzero;fill:rgb(0%,0%,0%);fill-opacity:1;" d="M 27.066406 16.128906 C 28.554688 16.34375 30.042969 16.554688 31.578125 16.773438 C 31.578125 17.414062 31.578125 18.050781 31.578125 18.710938 C 30.089844 18.496094 28.601562 18.285156 27.066406 18.066406 C 27.066406 17.425781 27.066406 16.785156 27.066406 16.128906 Z M 27.066406 16.128906 "/>
<path style=" stroke:none;fill-rule:nonzero;fill:rgb(20%,20%,19.607843%);fill-opacity:1;" d="M 25.132812 29.675781 C 25.769531 29.890625 26.410156 30.101562 27.066406 30.324219 C 27.066406 31.175781 27.066406 32.027344 27.066406 32.902344 C 25.578125 32.902344 24.089844 32.902344 22.554688 32.902344 C 23.40625 31.839844 24.257812 30.773438 25.132812 29.675781 Z M 25.132812 29.675781 "/>
<path style=" stroke:none;fill-rule:nonzero;fill:rgb(9.411765%,30.588236%,32.549021%);fill-opacity:1;" d="M 28.796875 15.121094 C 29.320312 15.304688 29.839844 15.492188 30.378906 15.683594 C 30.773438 15.832031 31.167969 15.976562 31.578125 16.128906 C 29.636719 16.730469 29.085938 16.804688 27.066406 16.128906 C 26.855469 16.769531 26.640625 17.40625 26.421875 18.066406 C 26.210938 17.425781 25.996094 16.785156 25.777344 16.128906 C 25.140625 15.703125 24.5 15.277344 23.84375 14.839844 C 26.085938 14.089844 26.644531 14.339844 28.796875 15.121094 Z M 28.796875 15.121094 "/>
<path style=" stroke:none;fill-rule:nonzero;fill:rgb(40.392157%,40.784314%,40.000001%);fill-opacity:1;" d="M 43.179688 33.546875 C 43.601562 33.546875 44.027344 33.546875 44.464844 33.546875 C 44.679688 34.1875 44.890625 34.824219 45.109375 35.484375 C 44.898438 35.910156 44.6875 36.335938 44.464844 36.773438 C 45.105469 36.5625 45.742188 36.347656 46.398438 36.128906 C 46.398438 36.554688 46.398438 36.980469 46.398438 37.417969 C 45.335938 37.417969 44.273438 37.417969 43.179688 37.417969 C 43.179688 36.140625 43.179688 34.863281 43.179688 33.546875 Z M 43.179688 33.546875 "/>
<path style=" stroke:none;fill-rule:nonzero;fill:rgb(13.333334%,44.705883%,48.235294%);fill-opacity:1;" d="M 25.132812 15.484375 C 26.421875 16.128906 26.421875 16.128906 26.90625 17.296875 C 27.101562 19.03125 26.667969 19.824219 25.777344 21.289062 C 25.566406 21.289062 25.351562 21.289062 25.132812 21.289062 C 25.132812 19.375 25.132812 17.457031 25.132812 15.484375 Z M 25.132812 15.484375 "/>
</g>
</svg>
